<?xml version="1.0" encoding="iso-8859-1"?>
<!-- Generator: Adobe Illustrator 19.0.0, SVG Export Plug-In . SVG Version: 6.00 Build 0)  -->
<svg version="1.1" id="Layer_1" xmlns="http://www.w3.org/2000/svg" xmlns:xlink="http://www.w3.org/1999/xlink" x="0px" y="0px"
	 viewBox="0 0 512 512" style="enable-background:new 0 0 512 512;" xml:space="preserve">
<path style="fill:#FFC69F;" d="M361.023,354.465l-8.302-2.768c-10.721-3.574-17.953-13.607-17.953-24.909v-24.836l8.752-8.752
	l-8.752-0.622L256,327.586l-78.767-35.008l-8.752,0.622l8.752,8.752v24.836c0,11.302-7.231,21.334-17.953,24.909l-8.302,2.768
	c0,0-19.145,67.827,17.504,78.767S256,512,256,512s50.871-67.827,87.519-78.767S361.023,354.465,361.023,354.465z"/>
<path style="fill:#FF5A4E;" d="M256,406.977L229.744,512H45.954c-9.668,0-17.504-7.836-17.504-17.504v-52.512L256,406.977z"/>
<g>
	<path style="fill:#F84F46;" d="M142.225,424.481L28.45,441.985v42.302c28.709-4.764,120.537-19.906,157.535-24.799
		c35.097-4.641,58.602-29.531,66.774-39.543l1.011-4.044L142.225,424.481z"/>
	<path style="fill:#F84F46;" d="M28.45,494.496c0,9.667,7.837,17.504,17.504,17.504h17.504v-65.639c0-3.336-0.674-6.493-1.672-9.505
		l-33.336,5.129V494.496z"/>
</g>
<rect x="107.222" y="433.232" style="fill:#EB443F;" width="8.752" height="78.767"/>
<path style="fill:#FFB98F;" d="M161.37,375.798c117.057,13.675,173.398-71.614,173.398-71.614l-11.636-6.434L256,327.587
	l-78.767-35.008l-8.752,0.621l8.752,8.752v24.835c0,11.302-7.231,21.335-17.953,24.91l-8.302,2.767c0,0-2.295,8.272-3.774,19.427
	C151.725,374.567,156.388,375.217,161.37,375.798z"/>
<path style="fill:#FFD5B2;" d="M332.005,306.099l-47.813,30.426c-17.201,10.947-39.183,10.947-56.384,0l-47.813-30.426
	c-12.622-8.032-20.266-21.956-20.266-36.918v-98.505c0-53.169,43.102-96.271,96.271-96.271l0,0
	c53.169,0,96.271,43.102,96.271,96.271v98.505C352.271,284.141,344.628,298.066,332.005,306.099z"/>
<path style="fill:#FFC69F;" d="M238.204,341.489c-18.997-14.002-31.942-38.453-38.49-53.278c-3.325-7.529-4.979-15.647-4.979-23.879
	V126.915l-28.634,9.545c-4.055,10.645-6.374,22.147-6.374,34.215v98.506c0,14.961,7.644,28.886,20.266,36.918l47.813,30.426
	C231.108,338.625,234.619,340.194,238.204,341.489z"/>
<g>
	<path style="fill:#873F33;" d="M212.24,231.938L212.24,231.938c-4.833,0-8.752-3.919-8.752-8.752v-8.752
		c0-4.833,3.919-8.752,8.752-8.752l0,0c4.833,0,8.752,3.919,8.752,8.752v8.752C220.992,228.02,217.074,231.938,212.24,231.938z"/>
	<path style="fill:#873F33;" d="M299.76,231.938L299.76,231.938c-4.833,0-8.752-3.919-8.752-8.752v-8.752
		c0-4.833,3.919-8.752,8.752-8.752l0,0c4.833,0,8.752,3.919,8.752,8.752v8.752C308.512,228.02,304.593,231.938,299.76,231.938z"/>
</g>
<path style="fill:#B1693C;" d="M226.242,275.698l-8.753,21.882c-2.484,6.214-10.513,7.861-15.246,3.13l-10.393-10.393
	c-3.808-3.808-6.28-8.75-7.041-14.082l-5.103-35.721c-1.42-9.943-9.936-17.328-19.98-17.328v45.992
	c0,14.963,7.644,28.887,20.267,36.92l47.812,30.426c8.601,5.473,18.395,8.21,28.192,8.21v-69.036h-29.755V275.698z"/>
<path style="fill:#CB5F3D;" d="M332.292,240.514l-5.103,35.721c-0.761,5.332-3.233,10.274-7.041,14.082l-10.393,10.393
	c-4.733,4.73-12.761,3.083-15.246-3.13l-8.753-21.882h-29.757h-29.757l-8.753,21.882c-2.484,6.214-10.513,7.861-15.246,3.13
	l-10.393-10.393c-3.808-3.808-6.28-8.75-7.041-14.082l-5.103-35.721c-1.42-9.943-9.936-17.328-19.98-17.328v70.015
	c0,14.963,7.644,28.887,20.267,36.92l47.812,30.426c8.601,5.473,18.395,8.21,28.192,8.21c9.797,0,19.591-2.737,28.192-8.21
	l47.812-30.426c12.624-8.033,20.267-21.957,20.267-36.92v-70.015C342.227,223.186,333.712,230.571,332.292,240.514z"/>
<g>
	<path style="fill:#B64A33;" d="M256,267.788c-24.979-5.47-43.76,17.504-43.76,17.504s23.247,13.128,43.76,0"/>
	<path style="fill:#B64A33;" d="M256,267.788c24.979-5.47,43.76,17.504,43.76,17.504s-23.247,13.128-43.76,0"/>
	<path style="fill:#B64A33;" d="M238.203,365.512c-20.767-18.158-12.289-35.115-31.042-62.283c-1.774-0.321-3.497-1.101-4.917-2.519
		l-10.393-10.393c-3.808-3.808-6.28-8.75-7.041-14.082l-5.103-35.721c-1.42-9.943-9.936-17.328-19.98-17.328v70.015
		c0,14.963,7.644,28.887,20.267,36.92l47.812,30.426c1.736,1.105,3.551,2.018,5.375,2.9
		C234.83,364.211,238.203,365.512,238.203,365.512z"/>
</g>
<path style="fill:#FF5A4E;" d="M347.577,67.623c-5.587-1.731-10.977-2.261-16.086-1.852c-11.015,0.882-21.292-4.37-28.329-12.89
	C291.944,39.296,274.998,30.632,256,30.632s-35.944,8.664-47.162,22.249c-7.038,8.52-17.315,13.771-28.33,12.89
	c-5.109-0.409-10.499,0.123-16.086,1.852c-15.48,4.794-27.536,18.039-30.281,34.01c-4.742,27.593,16.379,51.526,43.091,51.526
	c14.549,0,27.348-7.178,35.304-18.102c11.097,11.175,26.468,18.102,43.463,18.102s32.365-6.927,43.463-18.102
	c7.957,10.925,20.754,18.102,35.304,18.102c26.712,0,47.834-23.933,43.091-51.526C375.113,85.662,363.057,72.417,347.577,67.623z"/>
<rect x="177.237" y="109.399" style="fill:#EB443F;" width="78.767" height="52.512"/>
<rect x="264.756" y="109.399" style="fill:#FF7E68;" width="78.767" height="52.512"/>
<circle style="fill:#EB443F;" cx="177.237" cy="109.399" r="43.76"/>
<g>
	<circle style="fill:#FF7E68;" cx="334.772" cy="109.399" r="43.76"/>
	<path style="fill:#FF7E68;" d="M299.76,83.143l-8.752-35.008h7.789c1.534,1.505,2.995,3.085,4.365,4.744
		c7.037,8.521,17.314,13.773,28.329,12.891c0.95-0.074,1.954,0.056,2.922,0.047L299.76,83.143z"/>
</g>
<path style="fill:#EB443F;" d="M212.24,83.143l8.752-35.008h-7.789c-1.534,1.505-2.995,3.085-4.365,4.744
	c-7.037,8.521-17.314,13.773-28.329,12.891c-0.95-0.074-1.954,0.056-2.922,0.047L212.24,83.143z"/>
<circle style="fill:#FF5A4E;" cx="256.004" cy="91.895" r="61.264"/>
<g>
	<path style="fill:#FFC83C;" d="M334.767,157.535c-2.419,0-4.376-1.957-4.376-4.376c0-2.419,1.957-4.376,4.376-4.376
		c11.637,0,22.619-5.111,30.127-14.017c7.504-8.906,10.658-20.709,8.653-32.392c-2.444-14.197-13.145-26.196-27.264-30.572
		c-4.829-1.487-9.692-2.06-14.444-1.675c-11.962,1.043-23.671-4.316-32.055-14.461C288.943,42.538,272.982,35.008,256,35.008
		s-32.943,7.53-43.785,20.658c-8.384,10.162-20.008,15.513-32.055,14.461c-4.752-0.385-9.615,0.188-14.448,1.675
		c-14.115,4.376-24.816,16.376-27.256,30.572c-2.009,11.684,1.145,23.487,8.649,32.392c7.508,8.906,18.486,14.017,30.127,14.017
		c2.419,0,4.376,1.957,4.376,4.376c0,2.419-1.957,4.376-4.376,4.376c-14.226,0-27.645-6.248-36.819-17.128
		c-9.171-10.88-13.029-25.29-10.581-39.52c2.991-17.41,16.06-32.102,33.295-37.444c5.902-1.829,11.868-2.547,17.735-2.034
		c9.102,0.735,18.064-3.41,24.602-11.316C217.975,34.948,236.398,26.256,256,26.256s38.025,8.692,50.537,23.837
		c6.542,7.914,15.534,11.957,24.602,11.316c5.88-0.522,11.837,0.206,17.73,2.034c17.235,5.333,30.307,20.034,33.302,37.444
		c2.444,14.239-1.415,28.641-10.585,39.52C362.411,151.296,348.993,157.535,334.767,157.535z"/>
	<path style="fill:#FFC83C;" d="M256,157.535c-36.196,0-65.639-29.444-65.639-65.639S219.804,26.256,256,26.256
		s65.639,29.444,65.639,65.639S292.195,157.535,256,157.535z M256,35.008c-31.367,0-56.888,25.521-56.888,56.888
		s25.521,56.888,56.888,56.888s56.888-25.521,56.888-56.888S287.366,35.008,256,35.008z"/>
</g>
<path style="fill:#FFE159;" d="M352.271,170.663H159.729c-4.833,0-8.752-3.919-8.752-8.752v-8.752c0-4.833,3.919-8.752,8.752-8.752
	h192.542c4.833,0,8.752,3.919,8.752,8.752v8.752C361.023,166.744,357.104,170.663,352.271,170.663z"/>
<path style="fill:#FFC83C;" d="M234.12,170.663h-74.391c-4.833,0-8.752-3.919-8.752-8.752v-8.752c0-4.833,3.919-8.752,8.752-8.752
	h74.391c4.833,0,8.752,3.919,8.752,8.752v8.752C242.872,166.744,238.953,170.663,234.12,170.663z"/>
<path style="fill:#FFFF95;" d="M326.015,170.663H299.76c-4.833,0-8.752-3.919-8.752-8.752v-8.752c0-4.833,3.919-8.752,8.752-8.752
	h26.256c4.833,0,8.752,3.919,8.752,8.752v8.752C334.767,166.744,330.849,170.663,326.015,170.663z"/>
<g>
	<path style="fill:#FFC83C;" d="M264.752,17.504h-17.504c-2.419,0-4.376-1.957-4.376-4.376s1.957-4.376,4.376-4.376h17.504
		c2.419,0,4.376,1.957,4.376,4.376S267.171,17.504,264.752,17.504z"/>
	<path style="fill:#FFC83C;" d="M269.128,126.903c-4.833,0-8.752-3.919-8.752-8.752V4.376C260.376,1.957,258.419,0,256,0
		s-4.376,1.957-4.376,4.376v113.775c0,4.833-3.919,8.752-8.752,8.752H133.473l8.752,8.752h227.55l8.752-8.752H269.128z"/>
</g>
<path style="fill:#FFB432;" d="M159.729,345.713c0,0-110.129,10.21-131.279,26.256C11.008,385.2,2.194,433.233,2.194,433.233h22.101
	l-4.597,17.504c0,0,159.112-5.457,175.039-8.752c21.15-4.376,41.83-16.437,61.264-35.008
	C256,406.977,189.267,384.003,159.729,345.713z"/>
<path style="fill:#FF9C36;" d="M243.938,417.452l-44.507,6.358c-3.128,0.446-6.275,0.753-9.431,0.915l-165.706,8.508l-4.597,17.504
	c0,0,159.112-5.457,175.039-8.752C211.57,438.502,228.092,430.078,243.938,417.452z"/>
<path style="fill:#FF5A4E;" d="M256,406.977L282.256,512h183.791c9.668,0,17.504-7.836,17.504-17.504v-52.512L256,406.977z"/>
<polygon style="fill:#F84F46;" points="260.478,424.889 282.256,512 308.512,512 273.504,433.233 "/>
<rect x="396.035" y="433.232" style="fill:#EB443F;" width="8.752" height="78.767"/>
<path style="fill:#FFC83C;" d="M352.271,345.713c0,0,110.129,10.21,131.279,26.256c17.441,13.231,26.256,61.264,26.256,61.264
	h-22.101l4.597,17.504c0,0-159.112-5.457-175.039-8.752c-21.15-4.376-41.83-16.437-61.264-35.008
	C256,406.977,322.733,384.003,352.271,345.713z"/>
<path style="fill:#FFB432;" d="M268.061,417.452l44.507,6.358c3.128,0.446,6.275,0.753,9.431,0.915l165.706,8.508l4.597,17.504
	c0,0-159.112-5.457-175.039-8.752C300.429,438.502,283.907,430.078,268.061,417.452z"/>
<path style="fill:#FFE159;" d="M352.271,345.713c0,0,110.129,10.21,131.279,26.256c17.441,13.231,26.256,61.264,26.256,61.264
	h-22.101l-19.174-46.49c-1.555-3.77-4.866-6.531-8.854-7.383l-115.366-24.65C347.15,351.802,349.868,348.829,352.271,345.713z"/>
<polygon style="fill:#C33F39;" points="256,406.977 229.744,512 282.256,512 "/>
<circle style="fill:#FFB432;" cx="256.004" cy="415.728" r="26.256"/>
<circle style="fill:#FFC83C;" cx="256.004" cy="415.728" r="17.504"/>
<circle style="fill:#FFFF95;" cx="264.756" cy="406.976" r="8.752"/>
<path style="fill:#FF9C36;" d="M159.729,345.713c0,0-110.129,10.21-131.279,26.256C11.008,385.2,2.194,433.233,2.194,433.233h22.101
	l-2.298,8.752h6.453l20.976-41.955c3.372-6.742,9.356-11.812,16.562-14.029l101.7-31.293
	C164.849,351.802,162.131,348.829,159.729,345.713z"/>
<g>
	<polygon style="fill:#F84F46;" points="115.969,450.736 133.473,512 115.969,512 	"/>
	<polygon style="fill:#F84F46;" points="404.783,450.736 422.287,512 404.783,512 	"/>
</g>
<path style="fill:#FFC69F;" d="M159.729,188.167c-0.273,0.547,192.542-17.504,192.542-17.504H159.729L159.729,188.167
	L159.729,188.167z"/>
<g>
</g>
<g>
</g>
<g>
</g>
<g>
</g>
<g>
</g>
<g>
</g>
<g>
</g>
<g>
</g>
<g>
</g>
<g>
</g>
<g>
</g>
<g>
</g>
<g>
</g>
<g>
</g>
<g>
</g>
</svg>
